<svg xmlns="http://www.w3.org/2000/svg" viewBox="0 0 1600 800" role="img" aria-labelledby="title desc">
  <title id="title">Atendimento NR Caçambas</title>
  <desc id="desc">Imagem de fundo com caçamba NR, caminhão e cidade de Bauru.</desc>
  <defs><linearGradient id="bg" x1="0" x2="1" y1="0" y2="1"><stop stop-color="#0b4fb0"/><stop offset=".58" stop-color="#073b8e"/><stop offset="1" stop-color="#031a3a"/></linearGradient><linearGradient id="y" x1="0" x2="1"><stop stop-color="#ffe37a"/><stop offset="1" stop-color="#ffc400"/></linearGradient></defs>
  <rect width="1600" height="800" fill="url(#bg)"/>
  <circle cx="1280" cy="120" r="260" fill="#ffc400" opacity=".2"/>
  <g opacity=".16" fill="#f7fbff"><rect x="90" y="210" width="120" height="330"/><rect x="250" y="160" width="170" height="380"/><rect x="1120" y="190" width="210" height="360"/><rect x="1370" y="240" width="140" height="310"/></g>
  <path d="M0 570c330-88 570-78 820 20 244 95 470 92 780-36v246H0z" fill="#031a3a"/>
  <g transform="translate(660 310)">
    <path d="M30 70h660l-82 300H112z" fill="#0a3d91" stroke="#ffc400" stroke-width="8"/>
    <path d="M0 70h720l34-58H-28z" fill="url(#y)"/>
    <path d="M170 92l36 252M330 80v275M492 92l-36 252" stroke="#ffc400" stroke-width="16" stroke-linecap="round"/>
    <text x="360" y="254" text-anchor="middle" font-family="Arial Black, Impact, sans-serif" font-size="116" fill="#ffc400">NR</text>
  </g>
</svg>
