<svg xmlns="http://www.w3.org/2000/svg" viewBox="0 0 1100 760" role="img" aria-labelledby="title desc">
  <title id="title">Descarte organizado</title>
  <desc id="desc">Materiais separados em caçamba para descarte correto.</desc>
  <defs><linearGradient id="b" x1="0" x2="1" y1="0" y2="1"><stop stop-color="#0b4fb0"/><stop offset="1" stop-color="#031a3a"/></linearGradient><linearGradient id="y" x1="0" x2="1"><stop stop-color="#ffe37a"/><stop offset="1" stop-color="#ffc400"/></linearGradient></defs>
  <rect width="1100" height="760" fill="url(#b)"/>
  <circle cx="880" cy="118" r="180" fill="#ffc400" opacity=".16"/>
  <path d="M0 545c170-55 332-70 530-8 190 58 360 78 570-12v235H0z" fill="#031a3a"/>
  <g transform="translate(150 280)">
    <path d="M100 90h700l-86 344H186z" fill="#0a3d91" stroke="#ffc400" stroke-width="9"/>
    <path d="M60 90h780l30-58H30z" fill="url(#y)"/>
    <g fill="#574535"><rect x="156" y="30" width="126" height="38" rx="6" transform="rotate(-12 156 30)"/><rect x="330" y="18" width="150" height="46" rx="7" transform="rotate(7 330 18)"/><rect x="552" y="26" width="120" height="40" rx="6" transform="rotate(-5 552 26)"/></g>
    <g stroke="#ffc400" stroke-width="15" stroke-linecap="round"><path d="M228 116l36 288"/><path d="M450 104v310"/><path d="M672 116l-36 288"/></g>
    <text x="450" y="290" text-anchor="middle" font-family="Arial Black, Impact, sans-serif" font-size="100" fill="#ffc400">NR</text>
  </g>
</svg>
